# xmcd CD database file
#
# Track frame offsets:
#	150
#	13696
#	34143
#	53711
#	68545
#	83416
#	97097
#	109683
#	131754
#	149459
#	164045
#
# Disc length: 2413 seconds
#
# Revision: 0
# Processed by: cddbd v1.5.1PL0 Copyright (c) Steve Scherf et al.
# Submitted via: CDex 1.51
#
DISCID=92096b0b
DTITLE=Blossom Dearie - 1975 - From The Meticulous To The Sublime
DYEAR=1975
DGENRE=Jazz Vocal
TTITLE0=I'm Hip
TTITLE1=Saving My Feeling For You
TTITLE2=Sweet Georgie Fame
TTITLE3=A Face Like Yours
TTITLE4=Hey John
TTITLE5=I'm Shadowing You
TTITLE6=Many's The Time
TTITLE7=Send In The Clowns
TTITLE8=Isn't That The Thing To Do ?
TTITLE9=Feelin' Groovy - The 59th St. Bridge Song
TTITLE10=How Do You Say Auf Wiedersehn ?
EXTD=YEAR: 1975
EXTT0=
EXTT1=
EXTT2=
EXTT3=
EXTT4=
EXTT5=
EXTT6=
EXTT7=
EXTT8=
EXTT9=
EXTT10=
PLAYORDER=
